#!OML:ASF X:\für Bonn\!DataBase\2005_08_12_Daniel\c3d\Daniel.ASF
:FULLY-SPECIFIED
:DEGREES
112
root 0.170527 11.3012 -1.11967 5.4823 -85.6049 -29.8445
lowerback 48.5097 -4.3019 6.05171
upperback 2.51561 -3.43763 -2.34664
thorax -18.2132 -2.20191 -3.68425
lowerneck 1.86678 1.25595 -2.36386
upperneck 2.09108 1.61016 0.82006
head 0.303015 0.782534 0.630619
rclavicle -1.17283e-014 -6.75868e-015
rhumerus 66.7745 5.21561 -91.6451
rradius 4.32265
rwrist 56.0761
rhand -18.4951 4.97373
rfingers 7.12502
rthumb 7.79246 -24.8627
lclavicle -1.17283e-014 -6.75868e-015
lhumerus 69.0045 7.27257 108.193
lradius 8.97151
lwrist -88.1533
lhand -15.581 2.11429
lfingers 7.12502
lthumb 10.6044 31.8267
rfemur -35.9363 -35.9166 -7.05936
rtibia 113.002
rfoot 11.1061 43.0358
rtoes 2.91832
lfemur -40.7307 30.502 9.0174
ltibia 112.097
lfoot -12.8192 -47.6948
ltoes 11.4995
113
root 0.181435 11.5051 -1.12838 5.9662 -85.617 -29.9689
lowerback 47.1065 -4.2074 6.06778
upperback 3.60309 -3.40972 -2.25349
thorax -18.2376 -2.20862 -3.77426
lowerneck 1.7423 1.26611 -2.38673
upperneck 2.10711 1.62696 0.837716
head 0.327681 0.791194 0.640881
rclavicle -8.05078e-015 -5.56597e-015
rhumerus 66.7848 5.35019 -91.697
rradius 4.24543
rwrist 56.2801
rhand -18.3014 4.92193
rfingers 7.12502
rthumb 7.97941 -24.9075
lclavicle -8.05078e-015 -5.56597e-015
lhumerus 68.9403 7.18697 107.988
lradius 8.82755
lwrist -87.793
lhand -15.5443 2.30438
lfingers 7.12502
lthumb 10.6397 32.015
rfemur -35.6176 -34.1767 -5.32528
rtibia 110.949
rfoot 9.93337 42.2596
rtoes 3.16381
lfemur -40.0251 28.9336 7.77578
ltibia 110.122
lfoot -14.2832 -46.2864
ltoes 10.9136
114
root 0.193171 11.7115 -1.13733 6.4665 -85.6567 -30.0992
lowerback 46.5508 -4.1599 6.08167
upperback 3.61541 -3.36142 -2.23277
thorax -18.0553 -2.18338 -3.8005
lowerneck 1.58774 1.26421 -2.46218
upperneck 2.17734 1.62685 0.91003
head 0.373297 0.790819 0.677441
rclavicle 1.13307e-014 7.55382e-015
rhumerus 66.7674 5.4577 -91.7246
rradius 4.18952
rwrist 56.5112
rhand -18.0905 4.83581
rfingers 7.12502
rthumb 8.18301 -24.9857
lclavicle 1.13307e-014 7.55382e-015
lhumerus 68.8375 7.1165 107.79
lradius 8.67758
lwrist -87.4829
lhand -15.4828 2.46592
lfingers 7.12502
lthumb 10.6991 32.1735
rfemur -35.2205 -32.4869 -3.69111
rtibia 108.843
rfoot 8.6347 41.5836
rtoes 3.28027
lfemur -39.2556 27.4588 6.60751
ltibia 108.094
lfoot -15.6435 -44.8636
ltoes 10.2819
115
root 0.205925 11.9182 -1.14663 7.07213 -85.6965 -30.324
lowerback 46.0023 -4.11387 6.09605
upperback 3.59975 -3.31115 -2.20946
thorax -17.9071 -2.15733 -3.82483
lowerneck 1.50788 1.26813 -2.49321
upperneck 2.23653 1.63325 0.947847
head 0.403838 0.793712 0.695315
rclavicle -1.00883e-014 9.93923e-015
rhumerus 66.6901 5.58573 -91.77
rradius 4.09674
rwrist 56.7146
rhand -17.9681 4.72541
rfingers 7.12502
rthumb 8.30108 -25.0915
lclavicle -1.00883e-014 9.93923e-015
lhumerus 68.6575 7.07624 107.579
lradius 8.56025
lwrist -87.1976
lhand -15.3669 2.62851
lfingers 7.12502
lthumb 10.8108 32.3303
rfemur -34.737 -30.8826 -2.16705
rtibia 106.693
rfoot 7.24045 40.9701
rtoes 3.18972
lfemur -38.458 26.0707 5.50977
ltibia 106.022
lfoot -16.9364 -43.4366
ltoes 9.67414
116
root 0.219229 12.1283 -1.15561 7.61755 -85.7472 -30.465
lowerback 45.4796 -4.06757 6.10779
upperback 3.54814 -3.25854 -2.19274
thorax -17.8094 -2.13068 -3.85576
lowerneck 1.39949 1.26528 -2.44672
upperneck 2.34192 1.63272 0.927749
head 0.454277 0.793194 0.682925
rclavicle -1.80397e-014 -7.95139e-015
rhumerus 66.5581 5.66871 -91.8012
rradius 4.00936
rwrist 56.9098
rhand -17.9025 4.62312
rfingers 7.12502
rthumb 8.36444 -25.1913
lclavicle -1.80397e-014 -7.95139e-015
lhumerus 68.4288 7.04708 107.359
lradius 8.461
lwrist -86.8844
lhand -15.1866 2.78866
lfingers 7.12502
lthumb 10.9847 32.4813
rfemur -34.1663 -29.3136 -0.734832
rtibia 104.48
rfoot 5.79145 40.438
rtoes 2.95225
lfemur -37.6151 24.7267 4.42183
ltibia 103.878
lfoot -18.178 -41.9357
ltoes 9.21578
117
root 0.232864 12.3408 -1.16526 8.49731 -85.7911 -30.9383
lowerback 44.9842 -4.02547 6.12877
upperback 3.46984 -3.20051 -2.16337
thorax -17.7489 -2.10249 -3.87899
lowerneck 1.33736 1.26711 -2.37802
upperneck 2.44831 1.6374 0.884445
head 0.497666 0.795133 0.659324
rclavicle 2.22639e-014 -1.86858e-014
rhumerus 66.3626 5.7871 -91.8511
rradius 3.93978
rwrist 57.1425
rhand -17.863 4.48346
rfingers 7.12502
rthumb 8.40256 -25.3294
lclavicle 2.22639e-014 -1.86858e-014
lhumerus 68.1458 7.04233 107.137
lradius 8.40377
lwrist -86.6163
lhand -14.9108 2.92933
lfingers 7.12502
lthumb 11.2508 32.6076
rfemur -33.4897 -27.7776 0.660348
rtibia 102.201
rfoot 4.10847 39.9768
rtoes 2.34811
lfemur -36.7264 23.4063 3.41246
ltibia 101.666
lfoot -19.3395 -40.3981
ltoes 8.81735
